<svg width="48" height="62" viewBox="0 0 48 62" xmlns="http://www.w3.org/2000/svg"><title>Group 3</title><g fill="none" fill-rule="evenodd"><path d="M.191 7.679l3.9 6.2 3.5-2.45v24.35h7.5v-35h-5.4l-9.5 6.9zm22.1 10.6c0-10.9 3.95-17.9 12.1-17.9 8.15 0 12.1 7 12.1 17.9 0 10.9-3.85 17.9-12 17.9s-12.2-7-12.2-17.9zm8 0c0 8.1 1.7 10.9 4.2 10.9 2.85 0 4-2.7 4-10.9 0-8.25-1.25-10.9-4.1-10.9-2.8 0-4.1 2.9-4.1 10.9z" fill="#594429"/><path d="M13.87 61.779h2.927v-16.8H6.213l-.24 3.36C5.23 58.467 3.525 59.019 2.23 58.85l-.072 2.928c3.312.48 5.496-1.104 6.48-10.872l.336-3.168h4.896v14.04zm7.583 0h9.96v-2.76h-7.008v-4.344h6.048v-2.76h-6.048v-4.176h6.768v-2.76h-9.72zm11.712-14.04h5.448v14.04h2.952v-14.04h5.448v-2.76H33.165z" fill="#F68C29"/></g></svg>