<svg width="52" height="69" viewBox="0 0 52 69" xmlns="http://www.w3.org/2000/svg"><title>warranty</title><g fill="none" fill-rule="evenodd"><path d="M27.682 24.632l-9.24-3.182L4.35 62.378l9.053-3.026 5.271 7.958 7.5-21.778 7.818 22.707 5.271-7.958 9.054 3.026-14.093-40.928-6.542 2.253z" fill="#594429"/><g transform="translate(-5.174 -5.975)"><path d="M25.434 50.924l-6.644 2.629a1 1 0 0 1-1.363-.83l-.708-7.111a1 1 0 0 0-.802-.882l-7.011-1.38a1 1 0 0 1-.697-1.436l3.248-6.365a1 1 0 0 0-.198-1.175l-5.151-4.952a1 1 0 0 1 .19-1.585l6.173-3.598a1 1 0 0 0 .47-1.096l-1.657-6.95a1 1 0 0 1 1.016-1.231l7.139.311a1 1 0 0 0 .987-.668l2.364-6.743a1 1 0 0 1 1.52-.486l5.838 4.121a1 1 0 0 0 1.192-.028l5.634-4.395a1 1 0 0 1 1.542.413l2.682 6.623a1 1 0 0 0 1.018.62l7.116-.65a1 1 0 0 1 1.074 1.181l-1.324 7.022a1 1 0 0 0 .52 1.072l6.339 3.3a1 1 0 0 1 .264 1.574l-4.91 5.192a1 1 0 0 0-.141 1.183l3.547 6.203a1 1 0 0 1-.628 1.467l-6.937 1.713a1 1 0 0 0-.759.919l-.369 7.136a1 1 0 0 1-1.322.895l-6.762-2.31a1 1 0 0 0-1.135.363l-4.168 5.804a1 1 0 0 1-1.596.038l-4.44-5.6a1 1 0 0 0-1.151-.308z" fill="#F68C29"/><circle fill="#EAEBC2" cx="31.223" cy="31.621" r="15.913"/></g><text font-family="Circe-ExtraBold, Circe" font-size="25" font-weight="600" fill="#594429" transform="translate(-5.5 -6.102)"><tspan x="26.549" y="40.35">1</tspan></text></g></svg>