<?xml version="1.0" encoding="UTF-8"?>
<svg width="48px" height="62px" viewBox="0 0 48 62" version="1.1" xmlns="http://www.w3.org/2000/svg" xmlns:xlink="http://www.w3.org/1999/xlink">
    <!-- Generator: Sketch 47 (45396) - http://www.bohemiancoding.com/sketch -->
    <title>Group 3</title>
    <desc>Created with Sketch.</desc>
    <defs></defs>
    <g id="Page-1" stroke="none" stroke-width="1" fill="none" fill-rule="evenodd">
        <g id="key" transform="translate(-741.000000, -974.000000)">
            <g id="block-plus" transform="translate(389.000000, 870.679688)">
                <g id="icon" transform="translate(51.500000, 93.500000)">
                    <g id="Group-3" transform="translate(300.000000, 10.000000)">
                        <path d="M0.69140625,7.49922247 L4.59140625,13.6992225 L8.09140625,11.2492225 L8.09140625,35.5992225 L15.5914062,35.5992225 L15.5914062,0.599222474 L10.1914063,0.599222474 L0.69140625,7.49922247 Z M22.7914063,18.0992225 C22.7914063,7.19922247 26.7414063,0.199222474 34.8914062,0.199222474 C43.0414063,0.199222474 46.9914063,7.19922247 46.9914063,18.0992225 C46.9914063,28.9992225 43.1414062,35.9992225 34.9914063,35.9992225 C26.8414062,35.9992225 22.7914063,28.9992225 22.7914063,18.0992225 Z M30.7914063,18.0992225 C30.7914063,26.1992225 32.4914063,28.9992225 34.9914063,28.9992225 C37.8414062,28.9992225 38.9914063,26.2992225 38.9914063,18.0992225 C38.9914063,9.84922247 37.7414063,7.19922247 34.8914062,7.19922247 C32.0914062,7.19922247 30.7914063,10.0992225 30.7914063,18.0992225 Z" id="10-ЛЕТ" fill="#594429"></path>
                        <g id="Group-2" transform="translate(2.000000, 44.000000)" fill="#F68C29">
                            <path d="M12.3694062,17.5992225 L15.2974062,17.5992225 L15.2974062,0.799222474 L4.71340625,0.799222474 L4.47340625,4.15922247 C3.72940625,14.2872225 2.02540625,14.8392225 0.72940625,14.6712225 L0.65740625,17.5992225 C3.96940625,18.0792225 6.15340625,16.4952225 7.13740625,6.72722247 L7.47340625,3.55922247 L12.3694062,3.55922247 L12.3694062,17.5992225 Z" id="Path"></path>
                            <polygon id="Path" points="19.9534062 17.5992225 29.9134062 17.5992225 29.9134062 14.8392225 22.9054062 14.8392225 22.9054062 10.4952225 28.9534062 10.4952225 28.9534062 7.73522247 22.9054062 7.73522247 22.9054062 3.55922247 29.6734062 3.55922247 29.6734062 0.799222474 19.9534062 0.799222474"></polygon>
                            <polygon id="Path" points="31.6654062 3.55922247 37.1134062 3.55922247 37.1134062 17.5992225 40.0654062 17.5992225 40.0654062 3.55922247 45.5134062 3.55922247 45.5134062 0.799222474 31.6654062 0.799222474"></polygon>
                        </g>
                    </g>
                </g>
            </g>
        </g>
    </g>
</svg>