<?xml version="1.0" encoding="UTF-8"?>
<svg width="52px" height="69px" viewBox="0 0 52 69" version="1.1" xmlns="http://www.w3.org/2000/svg" xmlns:xlink="http://www.w3.org/1999/xlink">
    <!-- Generator: Sketch 47 (45396) - http://www.bohemiancoding.com/sketch -->
    <title>warranty</title>
    <desc>Created with Sketch.</desc>
    <defs></defs>
    <g id="Page-1" stroke="none" stroke-width="1" fill="none" fill-rule="evenodd">
        <g id="key" transform="translate(-1324.000000, -971.000000)">
            <g id="block-plus" transform="translate(389.000000, 870.679688)">
                <g id="icon" transform="translate(51.500000, 93.500000)">
                    <g id="warranty" transform="translate(878.000000, 0.718722)">
                        <path d="M33.1821877,30.7335707 L23.9422303,27.5519982 L9.84977666,68.4794554 L18.9032321,65.4533353 L24.1743867,73.4118142 L31.6732978,51.633395 L39.4920774,74.3407796 L44.763232,66.3823007 L53.8166874,69.4084208 L39.7242337,28.4809636 L33.1821877,30.7335707 Z" id="Combined-Shape" fill="#594429"></path>
                        <g id="Group" transform="translate(0.325769, 0.126982)">
                            <path d="M30.7560274,51.7817498 L25.0185686,56.0407288 L25.0185686,56.0407288 C24.5751095,56.3699134 23.9487581,56.2772756 23.6195735,55.8338165 C23.5643458,55.7594168 23.5197264,55.6777025 23.4869957,55.5910184 L20.9629162,48.906233 L20.9629162,48.906233 C20.8072105,48.4938611 20.3998614,48.2320738 19.9600723,48.2617443 L12.830837,48.7427211 L12.830837,48.7427211 C12.2798049,48.7798967 11.8029683,48.3633336 11.7657927,47.8123015 C11.7595557,47.7198541 11.7661975,47.6269885 11.7855277,47.5363698 L13.2762047,40.5481499 L13.2762047,40.5481499 C13.3681618,40.1170598 13.1670109,39.6766008 12.7809956,39.4637933 L6.52346559,36.014061 L6.52346559,36.014061 C6.03980921,35.7474247 5.86387972,35.1391922 6.13051608,34.6555359 C6.17524999,34.5743922 6.23104443,34.4998596 6.29629817,34.4340769 L11.3284524,29.3611331 L11.3284524,29.3611331 C11.6388765,29.0481928 11.7077877,28.5689047 11.4981035,28.181184 L8.09900027,21.8960084 L8.09900027,21.8960084 C7.83627713,21.4102152 8.0171111,20.8034229 8.50290427,20.5406998 C8.58440639,20.4966224 8.67163904,20.4640863 8.76209878,20.4440252 L15.7380568,18.8969813 L15.7380568,18.8969813 C16.1683905,18.8015471 16.485485,18.4356005 16.518705,17.9960652 L17.0572199,10.8709451 L17.0572199,10.8709451 C17.0988427,10.320231 17.5790267,9.90753106 18.1297407,9.9491539 C18.2221347,9.95613702 18.3131098,9.97592744 18.4000553,10.0079572 L25.1049997,12.4779887 L25.1049997,12.4779887 C25.518615,12.6303603 25.9832176,12.4939407 26.2487947,12.1421402 L30.553953,6.43925084 L30.553953,6.43925084 C30.8867069,5.9984637 31.5137858,5.91088541 31.9545729,6.24363928 C32.0285243,6.29946581 32.094358,6.36529944 32.1501845,6.43925084 L36.4553428,12.1421402 L36.4553428,12.1421402 C36.7209199,12.4939407 37.1855225,12.6303603 37.5991379,12.4779887 L44.3040823,10.0079572 L44.3040823,10.0079572 C44.8223202,9.8170438 45.3972009,10.0823927 45.5881143,10.6006306 C45.6201441,10.687576 45.6399345,10.7785511 45.6469177,10.8709451 L46.1854326,17.9960652 L46.1854326,17.9960652 C46.2186525,18.4356005 46.5357471,18.8015471 46.9660808,18.8969813 L53.9420388,20.4440252 L53.9420388,20.4440252 C54.4812238,20.5635992 54.8213858,21.0976288 54.7018118,21.6368139 C54.6817508,21.7272736 54.6492147,21.8145063 54.6051373,21.8960084 L51.2060341,28.181184 L51.2060341,28.181184 C50.9963498,28.5689047 51.065261,29.0481928 51.3756852,29.3611331 L56.4078394,34.4340769 L56.4078394,34.4340769 C56.7967841,34.8261744 56.7942284,35.4593342 56.4021309,35.848279 C56.3363482,35.9135327 56.2618156,35.9693271 56.180672,36.014061 L49.9231419,39.4637933 L49.9231419,39.4637933 C49.5371267,39.6766008 49.3359758,40.1170598 49.4279328,40.5481499 L50.9186099,47.5363698 L50.9186099,47.5363698 C51.0338271,48.0765026 50.689365,48.6077688 50.1492322,48.722986 C50.0586135,48.7423162 49.9657479,48.748958 49.8733006,48.7427211 L42.7440652,48.2617443 L42.7440652,48.2617443 C42.3042761,48.2320738 41.8969271,48.4938611 41.7412214,48.906233 L39.2171418,55.5910184 L39.2171418,55.5910184 C39.0220509,56.1076982 38.4450468,56.3683975 37.928367,56.1733066 C37.841683,56.140576 37.7599686,56.0959565 37.6855689,56.0407288 L31.9481102,51.7817498 L31.9481102,51.7817498 C31.5941771,51.5190215 31.1099604,51.5190215 30.7560274,51.7817498 Z" id="Star" fill="#F68C29" transform="translate(31.351976, 31.139872) rotate(15.000000) translate(-31.351976, -31.139872) "></path>
                            <circle id="Oval-2" fill="#EAEBC2" cx="31.2231604" cy="31.6209771" r="15.9126718"></circle>
                        </g>
                        <text id="1" font-family="Circe-ExtraBold, Circe" font-size="25" font-weight="600" fill="#594429">
                            <tspan x="26.5489297" y="40.3499963">1</tspan>
                        </text>
                    </g>
                </g>
            </g>
        </g>
    </g>
</svg>